<svg width="44" height="73" viewBox="0 0 44 73" fill="none" xmlns="http://www.w3.org/2000/svg">
<g id="Road icon">
<path id="Vector (Stroke)" fill-rule="evenodd" clip-rule="evenodd" d="M21.937 23.1797C22.9308 24.5139 24.705 25.4922 27.6457 25.0984C32.8091 24.407 36.8047 25.9565 39.202 28.9247C41.5402 31.8197 42.077 35.7285 41.0702 39.2339C40.0528 42.7762 37.4365 46.0231 33.3261 47.6505C29.2215 49.2756 23.8802 49.1938 17.501 46.631C11.9597 44.4048 8.77303 44.7658 7.05805 45.7692C5.38485 46.7481 4.40494 48.7658 4.30199 51.62C4.2 54.4475 5.00275 57.6686 6.38285 60.272C7.81142 62.9668 9.56198 64.4778 11.0228 64.7713L10.1761 68.9865C6.82262 68.3129 4.23339 65.3967 2.58419 62.2857C0.886524 59.0832 -0.126451 55.1196 0.00537013 51.465C0.13623 47.8371 1.43967 44.0751 4.88688 42.0582C8.29231 40.0658 13.0631 40.2147 19.1038 42.6415C24.7605 44.9141 28.9274 44.7679 31.7434 43.653C34.5536 42.5404 36.2702 40.3717 36.9378 38.0471C37.6161 35.6856 37.19 33.2762 35.8572 31.6261C34.5836 30.0491 32.2002 28.8263 28.2164 29.3598C23.9356 29.9331 20.5343 28.4938 18.4891 25.7481C16.5168 23.1004 16.036 19.5482 16.8105 16.2243C17.5929 12.8671 19.6829 9.57692 23.0984 7.34279C26.5304 5.09779 31.1615 4.00635 36.8885 4.79071L36.3051 9.05035C31.4406 8.38411 27.8874 9.34771 25.4519 10.9408C22.9999 12.5448 21.5394 14.8757 20.9978 17.2C20.4484 19.5577 20.8702 21.7475 21.937 23.1797Z" fill="black"/>
<path id="Vector (Stroke)_2" fill-rule="evenodd" clip-rule="evenodd" d="M36.5579 7.2045C35.8986 7.11421 35.2586 7.05143 34.6379 7.01441L34.672 6.44217C35.3078 6.48009 35.9624 6.54434 36.6357 6.63655L36.5579 7.2045ZM30.7877 7.12895C29.4296 7.30255 28.1926 7.61624 27.0744 8.0416L26.8706 7.5058C28.0328 7.0637 29.314 6.73941 30.715 6.56032L30.7877 7.12895ZM23.7339 9.87182C22.6734 10.6702 21.7903 11.5936 21.0816 12.5898L20.6145 12.2575C21.3567 11.2142 22.2808 10.2482 23.3891 9.41383L23.7339 9.87182ZM19.3961 15.9911C19.0079 17.2478 18.8467 18.525 18.9065 19.7428L18.3339 19.7709C18.2707 18.4838 18.4413 17.1399 18.8484 15.8219L19.3961 15.9911ZM19.8596 23.3678C20.4456 24.4743 21.2948 25.4027 22.4011 26.0499L22.1117 26.5447C20.9064 25.8396 19.985 24.8295 19.353 23.6361L19.8596 23.3678ZM27.893 26.945C28.6786 26.8398 29.4256 26.7924 30.1341 26.7979L30.1297 27.3711C29.4499 27.3659 28.7297 27.4114 27.969 27.5132C27.2634 27.6077 26.5938 27.6393 25.9608 27.6133L25.9843 27.0405C26.5817 27.065 27.218 27.0354 27.893 26.945ZM34.5163 27.6583C36.0061 28.3036 37.1748 29.2755 38.0216 30.4473L37.5569 30.7831C36.7702 29.6944 35.6832 28.7885 34.2884 28.1843L34.5163 27.6583ZM39.6217 34.6333C39.7967 36.0974 39.6434 37.6255 39.1672 39.0857L38.6222 38.9079C39.0733 37.5246 39.2173 36.0803 39.0525 34.7014L39.6217 34.6333ZM12.453 43.2686C10.9466 43.0544 9.64174 43.0762 8.51973 43.2871L8.41384 42.7237C9.608 42.4993 10.977 42.4797 12.5337 42.7011L12.453 43.2686ZM36.9311 42.9611C35.9776 44.0241 34.7796 44.9382 33.3411 45.6151L33.0971 45.0964C34.4656 44.4524 35.6016 43.5846 36.5043 42.5783L36.9311 42.9611ZM18.1955 44.9023C17.5435 44.6403 16.9153 44.4097 16.3102 44.2088L16.4909 43.6647C17.1078 43.8696 17.7471 44.1043 18.4092 44.3703C19.1092 44.6515 19.7915 44.8992 20.456 45.115L20.2789 45.6602C19.6016 45.4402 18.9071 45.1881 18.1955 44.9023ZM5.06637 44.927C4.11627 45.7791 3.44322 46.8931 3.01467 48.1765L2.47093 47.9949C2.92501 46.6351 3.64665 45.4302 4.68362 44.5002L5.06637 44.927ZM29.0415 46.7851C27.6817 46.9296 26.1966 46.9049 24.5879 46.678L24.668 46.1104C26.234 46.3313 27.6717 46.3542 28.9809 46.2151L29.0415 46.7851ZM2.43027 52.0564C2.42617 53.3429 2.57983 54.679 2.86759 55.9987L2.30749 56.1208C2.01182 54.7648 1.85277 53.3871 1.85702 52.0546L2.43027 52.0564ZM4.08376 59.7829C4.63032 61.0472 5.29285 62.2183 6.04203 63.2236L5.58237 63.5662C4.80331 62.5207 4.11941 61.3101 3.55757 60.0104L4.08376 59.7829ZM8.87828 65.8964C9.45499 66.2373 10.0498 66.4761 10.6559 66.5979L10.543 67.1599C9.86563 67.0238 9.21082 66.7589 8.58652 66.3898L8.87828 65.8964Z" fill="white"/>
<path id="Ellipse" d="M16.4748 67.5954C16.4748 70.3657 14.2291 72.6114 11.4588 72.6114C8.6886 72.6114 6.44287 70.3657 6.44287 67.5954C6.44287 64.8252 8.6886 62.5795 11.4588 62.5795C14.2291 62.5795 16.4748 64.8252 16.4748 67.5954Z" fill="#C4C4C4"/>
<path id="Ellipse_2" d="M13.6087 67.5954C13.6087 68.7827 12.6463 69.7451 11.459 69.7451C10.2718 69.7451 9.30933 68.7827 9.30933 67.5954C9.30933 66.4082 10.2718 65.4457 11.459 65.4457C12.6463 65.4457 13.6087 66.4082 13.6087 67.5954Z" fill="white"/>
<path id="Ellipse_3" d="M43.7046 5.97057C43.7046 8.74081 41.4588 10.9865 38.6886 10.9865C35.9183 10.9865 33.6726 8.74081 33.6726 5.97057C33.6726 3.20032 35.9183 0.95459 38.6886 0.95459C41.4588 0.95459 43.7046 3.20032 43.7046 5.97057Z" fill="#C4C4C4"/>
<path id="Ellipse_4" d="M40.8382 5.97057C40.8382 7.15782 39.8758 8.12027 38.6885 8.12027C37.5013 8.12027 36.5388 7.15782 36.5388 5.97057C36.5388 4.78332 37.5013 3.82086 38.6885 3.82086C39.8758 3.82086 40.8382 4.78332 40.8382 5.97057Z" fill="white"/>
</g>
</svg>
